<svg xmlns="http://www.w3.org/2000/svg" width="888" height="172" viewBox="0 0 888 172" role="img" aria-label="Solve activity over the last year"><rect width="888" height="172" fill="#0d1117"/><text x="0" y="14" font-family="system-ui,sans-serif" font-size="13" font-weight="700" fill="#ff563c">SOLVE ACTIVITY</text><text x="30" y="26" font-family="system-ui,sans-serif" font-size="9.5" fill="#bab6b6">Sep</text><text x="94" y="26" font-family="system-ui,sans-serif" font-size="9.5" fill="#bab6b6">Oct</text><text x="158" y="26" font-family="system-ui,sans-serif" font-size="9.5" fill="#bab6b6">Nov</text><text x="238" y="26" font-family="system-ui,sans-serif" font-size="9.5" fill="#bab6b6">Dec</text><text x="302" y="26" font-family="system-ui,sans-serif" font-size="9.5" fill="#bab6b6">Jan</text><text x="366" y="26" font-family="system-ui,sans-serif" font-size="9.5" fill="#bab6b6">Feb</text><text x="430" y="26" font-family="system-ui,sans-serif" font-size="9.5" fill="#bab6b6">Mar</text><text x="510" y="26" font-family="system-ui,sans-serif" font-size="9.5" fill="#bab6b6">Apr</text><text x="574" y="26" font-family="system-ui,sans-serif" font-size="9.5" fill="#bab6b6">May</text><text x="654" y="26" font-family="system-ui,sans-serif" font-size="9.5" fill="#bab6b6">Jun</text><text x="718" y="26" font-family="system-ui,sans-serif" font-size="9.5" fill="#bab6b6">Jul</text><text x="782" y="26" font-family="system-ui,sans-serif" font-size="9.5" fill="#bab6b6">Aug</text><text x="862" y="26" font-family="system-ui,sans-serif" font-size="9.5" fill="#bab6b6">Sep</text><text x="0" y="60" font-family="system-ui,sans-serif" font-size="9.5" fill="#bab6b6">M</text><text x="0" y="92" font-family="system-ui,sans-serif" font-size="9.5" fill="#bab6b6">W</text><text x="0" y="124" font-family="system-ui,sans-serif" font-size="9.5" fill="#bab6b6">F</text><rect x="30" y="34" width="13" height="13" fill="#444141" rx="2"><title>2025-09-07: 0 solved</title></rect><rect x="30" y="50" width="13" height="13" fill="#444141" rx="2"><title>2025-09-08: 0 solved</title></rect><rect x="30" y="66" width="13" height="13" fill="#444141" rx="2"><title>2025-09-09: 0 solved</title></rect><rect x="30" y="82" width="13" height="13" fill="#444141" rx="2"><title>2025-09-10: 0 solved</title></rect><rect x="30" y="98" width="13" height="13" fill="#444141" rx="2"><title>2025-09-11: 0 solved</title></rect><rect x="30" y="114" width="13" height="13" fill="#444141" rx="2"><title>2025-09-12: 0 solved</title></rect><rect x="30" y="130" width="13" height="13" fill="#444141" rx="2"><title>2025-09-13: 0 solved</title></rect><rect x="46" y="34" width="13" height="13" fill="#444141" rx="2"><title>2025-09-14: 0 solved</title></rect><rect x="46" y="50" width="13" height="13" fill="#444141" rx="2"><title>2025-09-15: 0 solved</title></rect><rect x="46" y="66" width="13" height="13" fill="#444141" rx="2"><title>2025-09-16: 0 solved</title></rect><rect x="46" y="82" width="13" height="13" fill="#444141" rx="2"><title>2025-09-17: 0 solved</title></rect><rect x="46" y="98" width="13" height="13" fill="#444141" rx="2"><title>2025-09-18: 0 solved</title></rect><rect x="46" y="114" width="13" height="13" fill="#444141" rx="2"><title>2025-09-19: 0 solved</title></rect><rect x="46" y="130" width="13" height="13" fill="#444141" rx="2"><title>2025-09-20: 0 solved</title></rect><rect x="62" y="34" width="13" height="13" fill="#444141" rx="2"><title>2025-09-21: 0 solved</title></rect><rect x="62" y="50" width="13" height="13" fill="#444141" rx="2"><title>2025-09-22: 0 solved</title></rect><rect x="62" y="66" width="13" height="13" fill="#444141" rx="2"><title>2025-09-23: 0 solved</title></rect><rect x="62" y="82" width="13" height="13" fill="#444141" rx="2"><title>2025-09-24: 0 solved</title></rect><rect x="62" y="98" width="13" height="13" fill="#444141" rx="2"><title>2025-09-25: 0 solved</title></rect><rect x="62" y="114" width="13" height="13" fill="#444141" rx="2"><title>2025-09-26: 0 solved</title></rect><rect x="62" y="130" width="13" height="13" fill="#444141" rx="2"><title>2025-09-27: 0 solved</title></rect><rect x="78" y="34" width="13" height="13" fill="#444141" rx="2"><title>2025-09-28: 0 solved</title></rect><rect x="78" y="50" width="13" height="13" fill="#444141" rx="2"><title>2025-09-29: 0 solved</title></rect><rect x="78" y="66" width="13" height="13" fill="#444141" rx="2"><title>2025-09-30: 0 solved</title></rect><rect x="78" y="82" width="13" height="13" fill="#444141" rx="2"><title>2025-10-01: 0 solved</title></rect><rect x="78" y="98" width="13" height="13" fill="#444141" rx="2"><title>2025-10-02: 0 solved</title></rect><rect x="78" y="114" width="13" height="13" fill="#444141" rx="2"><title>2025-10-03: 0 solved</title></rect><rect x="78" y="130" width="13" height="13" fill="#444141" rx="2"><title>2025-10-04: 0 solved</title></rect><rect x="94" y="34" width="13" height="13" fill="#444141" rx="2"><title>2025-10-05: 0 solved</title></rect><rect x="94" y="50" width="13" height="13" fill="#444141" rx="2"><title>2025-10-06: 0 solved</title></rect><rect x="94" y="66" width="13" height="13" fill="#444141" rx="2"><title>2025-10-07: 0 solved</title></rect><rect x="94" y="82" width="13" height="13" fill="#444141" rx="2"><title>2025-10-08: 0 solved</title></rect><rect x="94" y="98" width="13" height="13" fill="#444141" rx="2"><title>2025-10-09: 0 solved</title></rect><rect x="94" y="114" width="13" height="13" fill="#444141" rx="2"><title>2025-10-10: 0 solved</title></rect><rect x="94" y="130" width="13" height="13" fill="#444141" rx="2"><title>2025-10-11: 0 solved</title></rect><rect x="110" y="34" width="13" height="13" fill="#444141" rx="2"><title>2025-10-12: 0 solved</title></rect><rect x="110" y="50" width="13" height="13" fill="#444141" rx="2"><title>2025-10-13: 0 solved</title></rect><rect x="110" y="66" width="13" height="13" fill="#444141" rx="2"><title>2025-10-14: 0 solved</title></rect><rect x="110" y="82" width="13" height="13" fill="#444141" rx="2"><title>2025-10-15: 0 solved</title></rect><rect x="110" y="98" width="13" height="13" fill="#444141" rx="2"><title>2025-10-16: 0 solved</title></rect><rect x="110" y="114" width="13" height="13" fill="#444141" rx="2"><title>2025-10-17: 0 solved</title></rect><rect x="110" y="130" width="13" height="13" fill="#444141" rx="2"><title>2025-10-18: 0 solved</title></rect><rect x="126" y="34" width="13" height="13" fill="#444141" rx="2"><title>2025-10-19: 0 solved</title></rect><rect x="126" y="50" width="13" height="13" fill="#444141" rx="2"><title>2025-10-20: 0 solved</title></rect><rect x="126" y="66" width="13" height="13" fill="#444141" rx="2"><title>2025-10-21: 0 solved</title></rect><rect x="126" y="82" width="13" height="13" fill="#444141" rx="2"><title>2025-10-22: 0 solved</title></rect><rect x="126" y="98" width="13" height="13" fill="#444141" rx="2"><title>2025-10-23: 0 solved</title></rect><rect x="126" y="114" width="13" height="13" fill="#444141" rx="2"><title>2025-10-24: 0 solved</title></rect><rect x="126" y="130" width="13" height="13" fill="#444141" rx="2"><title>2025-10-25: 0 solved</title></rect><rect x="142" y="34" width="13" height="13" fill="#444141" rx="2"><title>2025-10-26: 0 solved</title></rect><rect x="142" y="50" width="13" height="13" fill="#444141" rx="2"><title>2025-10-27: 0 solved</title></rect><rect x="142" y="66" width="13" height="13" fill="#444141" rx="2"><title>2025-10-28: 0 solved</title></rect><rect x="142" y="82" width="13" height="13" fill="#444141" rx="2"><title>2025-10-29: 0 solved</title></rect><rect x="142" y="98" width="13" height="13" fill="#444141" rx="2"><title>2025-10-30: 0 solved</title></rect><rect x="142" y="114" width="13" height="13" fill="#444141" rx="2"><title>2025-10-31: 0 solved</title></rect><rect x="142" y="130" width="13" height="13" fill="#444141" rx="2"><title>2025-11-01: 0 solved</title></rect><rect x="158" y="34" width="13" height="13" fill="#444141" rx="2"><title>2025-11-02: 0 solved</title></rect><rect x="158" y="50" width="13" height="13" fill="#444141" rx="2"><title>2025-11-03: 0 solved</title></rect><rect x="158" y="66" width="13" height="13" fill="#444141" rx="2"><title>2025-11-04: 0 solved</title></rect><rect x="158" y="82" width="13" height="13" fill="#444141" rx="2"><title>2025-11-05: 0 solved</title></rect><rect x="158" y="98" width="13" height="13" fill="#444141" rx="2"><title>2025-11-06: 0 solved</title></rect><rect x="158" y="114" width="13" height="13" fill="#444141" rx="2"><title>2025-11-07: 0 solved</title></rect><rect x="158" y="130" width="13" height="13" fill="#444141" rx="2"><title>2025-11-08: 0 solved</title></rect><rect x="174" y="34" width="13" height="13" fill="#444141" rx="2"><title>2025-11-09: 0 solved</title></rect><rect x="174" y="50" width="13" height="13" fill="#444141" rx="2"><title>2025-11-10: 0 solved</title></rect><rect x="174" y="66" width="13" height="13" fill="#444141" rx="2"><title>2025-11-11: 0 solved</title></rect><rect x="174" y="82" width="13" height="13" fill="#444141" rx="2"><title>2025-11-12: 0 solved</title></rect><rect x="174" y="98" width="13" height="13" fill="#444141" rx="2"><title>2025-11-13: 0 solved</title></rect><rect x="174" y="114" width="13" height="13" fill="#444141" rx="2"><title>2025-11-14: 0 solved</title></rect><rect x="174" y="130" width="13" height="13" fill="#444141" rx="2"><title>2025-11-15: 0 solved</title></rect><rect x="190" y="34" width="13" height="13" fill="#444141" rx="2"><title>2025-11-16: 0 solved</title></rect><rect x="190" y="50" width="13" height="13" fill="#444141" rx="2"><title>2025-11-17: 0 solved</title></rect><rect x="190" y="66" width="13" height="13" fill="#444141" rx="2"><title>2025-11-18: 0 solved</title></rect><rect x="190" y="82" width="13" height="13" fill="#444141" rx="2"><title>2025-11-19: 0 solved</title></rect><rect x="190" y="98" width="13" height="13" fill="#444141" rx="2"><title>2025-11-20: 0 solved</title></rect><rect x="190" y="114" width="13" height="13" fill="#444141" rx="2"><title>2025-11-21: 0 solved</title></rect><rect x="190" y="130" width="13" height="13" fill="#444141" rx="2"><title>2025-11-22: 0 solved</title></rect><rect x="206" y="34" width="13" height="13" fill="#444141" rx="2"><title>2025-11-23: 0 solved</title></rect><rect x="206" y="50" width="13" height="13" fill="#444141" rx="2"><title>2025-11-24: 0 solved</title></rect><rect x="206" y="66" width="13" height="13" fill="#444141" rx="2"><title>2025-11-25: 0 solved</title></rect><rect x="206" y="82" width="13" height="13" fill="#444141" rx="2"><title>2025-11-26: 0 solved</title></rect><rect x="206" y="98" width="13" height="13" fill="#444141" rx="2"><title>2025-11-27: 0 solved</title></rect><rect x="206" y="114" width="13" height="13" fill="#444141" rx="2"><title>2025-11-28: 0 solved</title></rect><rect x="206" y="130" width="13" height="13" fill="#444141" rx="2"><title>2025-11-29: 0 solved</title></rect><rect x="222" y="34" width="13" height="13" fill="#444141" rx="2"><title>2025-11-30: 0 solved</title></rect><rect x="222" y="50" width="13" height="13" fill="#444141" rx="2"><title>2025-12-01: 0 solved</title></rect><rect x="222" y="66" width="13" height="13" fill="#444141" rx="2"><title>2025-12-02: 0 solved</title></rect><rect x="222" y="82" width="13" height="13" fill="#444141" rx="2"><title>2025-12-03: 0 solved</title></rect><rect x="222" y="98" width="13" height="13" fill="#444141" rx="2"><title>2025-12-04: 0 solved</title></rect><rect x="222" y="114" width="13" height="13" fill="#444141" rx="2"><title>2025-12-05: 0 solved</title></rect><rect x="222" y="130" width="13" height="13" fill="#444141" rx="2"><title>2025-12-06: 0 solved</title></rect><rect x="238" y="34" width="13" height="13" fill="#444141" rx="2"><title>2025-12-07: 0 solved</title></rect><rect x="238" y="50" width="13" height="13" fill="#444141" rx="2"><title>2025-12-08: 0 solved</title></rect><rect x="238" y="66" width="13" height="13" fill="#444141" rx="2"><title>2025-12-09: 0 solved</title></rect><rect x="238" y="82" width="13" height="13" fill="#444141" rx="2"><title>2025-12-10: 0 solved</title></rect><rect x="238" y="98" width="13" height="13" fill="#444141" rx="2"><title>2025-12-11: 0 solved</title></rect><rect x="238" y="114" width="13" height="13" fill="#444141" rx="2"><title>2025-12-12: 0 solved</title></rect><rect x="238" y="130" width="13" height="13" fill="#444141" rx="2"><title>2025-12-13: 0 solved</title></rect><rect x="254" y="34" width="13" height="13" fill="#444141" rx="2"><title>2025-12-14: 0 solved</title></rect><rect x="254" y="50" width="13" height="13" fill="#444141" rx="2"><title>2025-12-15: 0 solved</title></rect><rect x="254" y="66" width="13" height="13" fill="#444141" rx="2"><title>2025-12-16: 0 solved</title></rect><rect x="254" y="82" width="13" height="13" fill="#444141" rx="2"><title>2025-12-17: 0 solved</title></rect><rect x="254" y="98" width="13" height="13" fill="#444141" rx="2"><title>2025-12-18: 0 solved</title></rect><rect x="254" y="114" width="13" height="13" fill="#444141" rx="2"><title>2025-12-19: 0 solved</title></rect><rect x="254" y="130" width="13" height="13" fill="#444141" rx="2"><title>2025-12-20: 0 solved</title></rect><rect x="270" y="34" width="13" height="13" fill="#444141" rx="2"><title>2025-12-21: 0 solved</title></rect><rect x="270" y="50" width="13" height="13" fill="#444141" rx="2"><title>2025-12-22: 0 solved</title></rect><rect x="270" y="66" width="13" height="13" fill="#444141" rx="2"><title>2025-12-23: 0 solved</title></rect><rect x="270" y="82" width="13" height="13" fill="#444141" rx="2"><title>2025-12-24: 0 solved</title></rect><rect x="270" y="98" width="13" height="13" fill="#444141" rx="2"><title>2025-12-25: 0 solved</title></rect><rect x="270" y="114" width="13" height="13" fill="#444141" rx="2"><title>2025-12-26: 0 solved</title></rect><rect x="270" y="130" width="13" height="13" fill="#444141" rx="2"><title>2025-12-27: 0 solved</title></rect><rect x="286" y="34" width="13" height="13" fill="#444141" rx="2"><title>2025-12-28: 0 solved</title></rect><rect x="286" y="50" width="13" height="13" fill="#444141" rx="2"><title>2025-12-29: 0 solved</title></rect><rect x="286" y="66" width="13" height="13" fill="#444141" rx="2"><title>2025-12-30: 0 solved</title></rect><rect x="286" y="82" width="13" height="13" fill="#444141" rx="2"><title>2025-12-31: 0 solved</title></rect><rect x="286" y="98" width="13" height="13" fill="#444141" rx="2"><title>2026-01-01: 0 solved</title></rect><rect x="286" y="114" width="13" height="13" fill="#444141" rx="2"><title>2026-01-02: 0 solved</title></rect><rect x="286" y="130" width="13" height="13" fill="#444141" rx="2"><title>2026-01-03: 0 solved</title></rect><rect x="302" y="34" width="13" height="13" fill="#444141" rx="2"><title>2026-01-04: 0 solved</title></rect><rect x="302" y="50" width="13" height="13" fill="#444141" rx="2"><title>2026-01-05: 0 solved</title></rect><rect x="302" y="66" width="13" height="13" fill="#444141" rx="2"><title>2026-01-06: 0 solved</title></rect><rect x="302" y="82" width="13" height="13" fill="#444141" rx="2"><title>2026-01-07: 0 solved</title></rect><rect x="302" y="98" width="13" height="13" fill="#444141" rx="2"><title>2026-01-08: 0 solved</title></rect><rect x="302" y="114" width="13" height="13" fill="#444141" rx="2"><title>2026-01-09: 0 solved</title></rect><rect x="302" y="130" width="13" height="13" fill="#444141" rx="2"><title>2026-01-10: 0 solved</title></rect><rect x="318" y="34" width="13" height="13" fill="#444141" rx="2"><title>2026-01-11: 0 solved</title></rect><rect x="318" y="50" width="13" height="13" fill="#444141" rx="2"><title>2026-01-12: 0 solved</title></rect><rect x="318" y="66" width="13" height="13" fill="#444141" rx="2"><title>2026-01-13: 0 solved</title></rect><rect x="318" y="82" width="13" height="13" fill="#444141" rx="2"><title>2026-01-14: 0 solved</title></rect><rect x="318" y="98" width="13" height="13" fill="#444141" rx="2"><title>2026-01-15: 0 solved</title></rect><rect x="318" y="114" width="13" height="13" fill="#444141" rx="2"><title>2026-01-16: 0 solved</title></rect><rect x="318" y="130" width="13" height="13" fill="#444141" rx="2"><title>2026-01-17: 0 solved</title></rect><rect x="334" y="34" width="13" height="13" fill="#444141" rx="2"><title>2026-01-18: 0 solved</title></rect><rect x="334" y="50" width="13" height="13" fill="#444141" rx="2"><title>2026-01-19: 0 solved</title></rect><rect x="334" y="66" width="13" height="13" fill="#444141" rx="2"><title>2026-01-20: 0 solved</title></rect><rect x="334" y="82" width="13" height="13" fill="#444141" rx="2"><title>2026-01-21: 0 solved</title></rect><rect x="334" y="98" width="13" height="13" fill="#444141" rx="2"><title>2026-01-22: 0 solved</title></rect><rect x="334" y="114" width="13" height="13" fill="#444141" rx="2"><title>2026-01-23: 0 solved</title></rect><rect x="334" y="130" width="13" height="13" fill="#444141" rx="2"><title>2026-01-24: 0 solved</title></rect><rect x="350" y="34" width="13" height="13" fill="#444141" rx="2"><title>2026-01-25: 0 solved</title></rect><rect x="350" y="50" width="13" height="13" fill="#444141" rx="2"><title>2026-01-26: 0 solved</title></rect><rect x="350" y="66" width="13" height="13" fill="#444141" rx="2"><title>2026-01-27: 0 solved</title></rect><rect x="350" y="82" width="13" height="13" fill="#444141" rx="2"><title>2026-01-28: 0 solved</title></rect><rect x="350" y="98" width="13" height="13" fill="#444141" rx="2"><title>2026-01-29: 0 solved</title></rect><rect x="350" y="114" width="13" height="13" fill="#444141" rx="2"><title>2026-01-30: 0 solved</title></rect><rect x="350" y="130" width="13" height="13" fill="#444141" rx="2"><title>2026-01-31: 0 solved</title></rect><rect x="366" y="34" width="13" height="13" fill="#444141" rx="2"><title>2026-02-01: 0 solved</title></rect><rect x="366" y="50" width="13" height="13" fill="#444141" rx="2"><title>2026-02-02: 0 solved</title></rect><rect x="366" y="66" width="13" height="13" fill="#444141" rx="2"><title>2026-02-03: 0 solved</title></rect><rect x="366" y="82" width="13" height="13" fill="#444141" rx="2"><title>2026-02-04: 0 solved</title></rect><rect x="366" y="98" width="13" height="13" fill="#444141" rx="2"><title>2026-02-05: 0 solved</title></rect><rect x="366" y="114" width="13" height="13" fill="#444141" rx="2"><title>2026-02-06: 0 solved</title></rect><rect x="366" y="130" width="13" height="13" fill="#444141" rx="2"><title>2026-02-07: 0 solved</title></rect><rect x="382" y="34" width="13" height="13" fill="#444141" rx="2"><title>2026-02-08: 0 solved</title></rect><rect x="382" y="50" width="13" height="13" fill="#444141" rx="2"><title>2026-02-09: 0 solved</title></rect><rect x="382" y="66" width="13" height="13" fill="#444141" rx="2"><title>2026-02-10: 0 solved</title></rect><rect x="382" y="82" width="13" height="13" fill="#444141" rx="2"><title>2026-02-11: 0 solved</title></rect><rect x="382" y="98" width="13" height="13" fill="#444141" rx="2"><title>2026-02-12: 0 solved</title></rect><rect x="382" y="114" width="13" height="13" fill="#444141" rx="2"><title>2026-02-13: 0 solved</title></rect><rect x="382" y="130" width="13" height="13" fill="#444141" rx="2"><title>2026-02-14: 0 solved</title></rect><rect x="398" y="34" width="13" height="13" fill="#444141" rx="2"><title>2026-02-15: 0 solved</title></rect><rect x="398" y="50" width="13" height="13" fill="#444141" rx="2"><title>2026-02-16: 0 solved</title></rect><rect x="398" y="66" width="13" height="13" fill="#444141" rx="2"><title>2026-02-17: 0 solved</title></rect><rect x="398" y="82" width="13" height="13" fill="#444141" rx="2"><title>2026-02-18: 0 solved</title></rect><rect x="398" y="98" width="13" height="13" fill="#444141" rx="2"><title>2026-02-19: 0 solved</title></rect><rect x="398" y="114" width="13" height="13" fill="#444141" rx="2"><title>2026-02-20: 0 solved</title></rect><rect x="398" y="130" width="13" height="13" fill="#444141" rx="2"><title>2026-02-21: 0 solved</title></rect><rect x="414" y="34" width="13" height="13" fill="#444141" rx="2"><title>2026-02-22: 0 solved</title></rect><rect x="414" y="50" width="13" height="13" fill="#444141" rx="2"><title>2026-02-23: 0 solved</title></rect><rect x="414" y="66" width="13" height="13" fill="#444141" rx="2"><title>2026-02-24: 0 solved</title></rect><rect x="414" y="82" width="13" height="13" fill="#444141" rx="2"><title>2026-02-25: 0 solved</title></rect><rect x="414" y="98" width="13" height="13" fill="#444141" rx="2"><title>2026-02-26: 0 solved</title></rect><rect x="414" y="114" width="13" height="13" fill="#444141" rx="2"><title>2026-02-27: 0 solved</title></rect><rect x="414" y="130" width="13" height="13" fill="#444141" rx="2"><title>2026-02-28: 0 solved</title></rect><rect x="430" y="34" width="13" height="13" fill="#444141" rx="2"><title>2026-03-01: 0 solved</title></rect><rect x="430" y="50" width="13" height="13" fill="#444141" rx="2"><title>2026-03-02: 0 solved</title></rect><rect x="430" y="66" width="13" height="13" fill="#444141" rx="2"><title>2026-03-03: 0 solved</title></rect><rect x="430" y="82" width="13" height="13" fill="#444141" rx="2"><title>2026-03-04: 0 solved</title></rect><rect x="430" y="98" width="13" height="13" fill="#444141" rx="2"><title>2026-03-05: 0 solved</title></rect><rect x="430" y="114" width="13" height="13" fill="#444141" rx="2"><title>2026-03-06: 0 solved</title></rect><rect x="430" y="130" width="13" height="13" fill="#444141" rx="2"><title>2026-03-07: 0 solved</title></rect><rect x="446" y="34" width="13" height="13" fill="#444141" rx="2"><title>2026-03-08: 0 solved</title></rect><rect x="446" y="50" width="13" height="13" fill="#444141" rx="2"><title>2026-03-09: 0 solved</title></rect><rect x="446" y="66" width="13" height="13" fill="#444141" rx="2"><title>2026-03-10: 0 solved</title></rect><rect x="446" y="82" width="13" height="13" fill="#444141" rx="2"><title>2026-03-11: 0 solved</title></rect><rect x="446" y="98" width="13" height="13" fill="#444141" rx="2"><title>2026-03-12: 0 solved</title></rect><rect x="446" y="114" width="13" height="13" fill="#444141" rx="2"><title>2026-03-13: 0 solved</title></rect><rect x="446" y="130" width="13" height="13" fill="#444141" rx="2"><title>2026-03-14: 0 solved</title></rect><rect x="462" y="34" width="13" height="13" fill="#444141" rx="2"><title>2026-03-15: 0 solved</title></rect><rect x="462" y="50" width="13" height="13" fill="#444141" rx="2"><title>2026-03-16: 0 solved</title></rect><rect x="462" y="66" width="13" height="13" fill="#444141" rx="2"><title>2026-03-17: 0 solved</title></rect><rect x="462" y="82" width="13" height="13" fill="#444141" rx="2"><title>2026-03-18: 0 solved</title></rect><rect x="462" y="98" width="13" height="13" fill="#444141" rx="2"><title>2026-03-19: 0 solved</title></rect><rect x="462" y="114" width="13" height="13" fill="#444141" rx="2"><title>2026-03-20: 0 solved</title></rect><rect x="462" y="130" width="13" height="13" fill="#444141" rx="2"><title>2026-03-21: 0 solved</title></rect><rect x="478" y="34" width="13" height="13" fill="#444141" rx="2"><title>2026-03-22: 0 solved</title></rect><rect x="478" y="50" width="13" height="13" fill="#444141" rx="2"><title>2026-03-23: 0 solved</title></rect><rect x="478" y="66" width="13" height="13" fill="#444141" rx="2"><title>2026-03-24: 0 solved</title></rect><rect x="478" y="82" width="13" height="13" fill="#444141" rx="2"><title>2026-03-25: 0 solved</title></rect><rect x="478" y="98" width="13" height="13" fill="#444141" rx="2"><title>2026-03-26: 0 solved</title></rect><rect x="478" y="114" width="13" height="13" fill="#444141" rx="2"><title>2026-03-27: 0 solved</title></rect><rect x="478" y="130" width="13" height="13" fill="#444141" rx="2"><title>2026-03-28: 0 solved</title></rect><rect x="494" y="34" width="13" height="13" fill="#444141" rx="2"><title>2026-03-29: 0 solved</title></rect><rect x="494" y="50" width="13" height="13" fill="#444141" rx="2"><title>2026-03-30: 0 solved</title></rect><rect x="494" y="66" width="13" height="13" fill="#444141" rx="2"><title>2026-03-31: 0 solved</title></rect><rect x="494" y="82" width="13" height="13" fill="#444141" rx="2"><title>2026-04-01: 0 solved</title></rect><rect x="494" y="98" width="13" height="13" fill="#444141" rx="2"><title>2026-04-02: 0 solved</title></rect><rect x="494" y="114" width="13" height="13" fill="#444141" rx="2"><title>2026-04-03: 0 solved</title></rect><rect x="494" y="130" width="13" height="13" fill="#444141" rx="2"><title>2026-04-04: 0 solved</title></rect><rect x="510" y="34" width="13" height="13" fill="#444141" rx="2"><title>2026-04-05: 0 solved</title></rect><rect x="510" y="50" width="13" height="13" fill="#444141" rx="2"><title>2026-04-06: 0 solved</title></rect><rect x="510" y="66" width="13" height="13" fill="#444141" rx="2"><title>2026-04-07: 0 solved</title></rect><rect x="510" y="82" width="13" height="13" fill="#444141" rx="2"><title>2026-04-08: 0 solved</title></rect><rect x="510" y="98" width="13" height="13" fill="#444141" rx="2"><title>2026-04-09: 0 solved</title></rect><rect x="510" y="114" width="13" height="13" fill="#444141" rx="2"><title>2026-04-10: 0 solved</title></rect><rect x="510" y="130" width="13" height="13" fill="#444141" rx="2"><title>2026-04-11: 0 solved</title></rect><rect x="526" y="34" width="13" height="13" fill="#444141" rx="2"><title>2026-04-12: 0 solved</title></rect><rect x="526" y="50" width="13" height="13" fill="#444141" rx="2"><title>2026-04-13: 0 solved</title></rect><rect x="526" y="66" width="13" height="13" fill="#444141" rx="2"><title>2026-04-14: 0 solved</title></rect><rect x="526" y="82" width="13" height="13" fill="#444141" rx="2"><title>2026-04-15: 0 solved</title></rect><rect x="526" y="98" width="13" height="13" fill="#444141" rx="2"><title>2026-04-16: 0 solved</title></rect><rect x="526" y="114" width="13" height="13" fill="#444141" rx="2"><title>2026-04-17: 0 solved</title></rect><rect x="526" y="130" width="13" height="13" fill="#444141" rx="2"><title>2026-04-18: 0 solved</title></rect><rect x="542" y="34" width="13" height="13" fill="#444141" rx="2"><title>2026-04-19: 0 solved</title></rect><rect x="542" y="50" width="13" height="13" fill="#444141" rx="2"><title>2026-04-20: 0 solved</title></rect><rect x="542" y="66" width="13" height="13" fill="#444141" rx="2"><title>2026-04-21: 0 solved</title></rect><rect x="542" y="82" width="13" height="13" fill="#444141" rx="2"><title>2026-04-22: 0 solved</title></rect><rect x="542" y="98" width="13" height="13" fill="#444141" rx="2"><title>2026-04-23: 0 solved</title></rect><rect x="542" y="114" width="13" height="13" fill="#444141" rx="2"><title>2026-04-24: 0 solved</title></rect><rect x="542" y="130" width="13" height="13" fill="#444141" rx="2"><title>2026-04-25: 0 solved</title></rect><rect x="558" y="34" width="13" height="13" fill="#444141" rx="2"><title>2026-04-26: 0 solved</title></rect><rect x="558" y="50" width="13" height="13" fill="#444141" rx="2"><title>2026-04-27: 0 solved</title></rect><rect x="558" y="66" width="13" height="13" fill="#444141" rx="2"><title>2026-04-28: 0 solved</title></rect><rect x="558" y="82" width="13" height="13" fill="#444141" rx="2"><title>2026-04-29: 0 solved</title></rect><rect x="558" y="98" width="13" height="13" fill="#444141" rx="2"><title>2026-04-30: 0 solved</title></rect><rect x="558" y="114" width="13" height="13" fill="#444141" rx="2"><title>2026-05-01: 0 solved</title></rect><rect x="558" y="130" width="13" height="13" fill="#444141" rx="2"><title>2026-05-02: 0 solved</title></rect><rect x="574" y="34" width="13" height="13" fill="#444141" rx="2"><title>2026-05-03: 0 solved</title></rect><rect x="574" y="50" width="13" height="13" fill="#444141" rx="2"><title>2026-05-04: 0 solved</title></rect><rect x="574" y="66" width="13" height="13" fill="#444141" rx="2"><title>2026-05-05: 0 solved</title></rect><rect x="574" y="82" width="13" height="13" fill="#444141" rx="2"><title>2026-05-06: 0 solved</title></rect><rect x="574" y="98" width="13" height="13" fill="#444141" rx="2"><title>2026-05-07: 0 solved</title></rect><rect x="574" y="114" width="13" height="13" fill="#444141" rx="2"><title>2026-05-08: 0 solved</title></rect><rect x="574" y="130" width="13" height="13" fill="#444141" rx="2"><title>2026-05-09: 0 solved</title></rect><rect x="590" y="34" width="13" height="13" fill="#444141" rx="2"><title>2026-05-10: 0 solved</title></rect><rect x="590" y="50" width="13" height="13" fill="#444141" rx="2"><title>2026-05-11: 0 solved</title></rect><rect x="590" y="66" width="13" height="13" fill="#444141" rx="2"><title>2026-05-12: 0 solved</title></rect><rect x="590" y="82" width="13" height="13" fill="#444141" rx="2"><title>2026-05-13: 0 solved</title></rect><rect x="590" y="98" width="13" height="13" fill="#444141" rx="2"><title>2026-05-14: 0 solved</title></rect><rect x="590" y="114" width="13" height="13" fill="#444141" rx="2"><title>2026-05-15: 0 solved</title></rect><rect x="590" y="130" width="13" height="13" fill="#444141" rx="2"><title>2026-05-16: 0 solved</title></rect><rect x="606" y="34" width="13" height="13" fill="#444141" rx="2"><title>2026-05-17: 0 solved</title></rect><rect x="606" y="50" width="13" height="13" fill="#444141" rx="2"><title>2026-05-18: 0 solved</title></rect><rect x="606" y="66" width="13" height="13" fill="#444141" rx="2"><title>2026-05-19: 0 solved</title></rect><rect x="606" y="82" width="13" height="13" fill="#444141" rx="2"><title>2026-05-20: 0 solved</title></rect><rect x="606" y="98" width="13" height="13" fill="#444141" rx="2"><title>2026-05-21: 0 solved</title></rect><rect x="606" y="114" width="13" height="13" fill="#444141" rx="2"><title>2026-05-22: 0 solved</title></rect><rect x="606" y="130" width="13" height="13" fill="#444141" rx="2"><title>2026-05-23: 0 solved</title></rect><rect x="622" y="34" width="13" height="13" fill="#444141" rx="2"><title>2026-05-24: 0 solved</title></rect><rect x="622" y="50" width="13" height="13" fill="#444141" rx="2"><title>2026-05-25: 0 solved</title></rect><rect x="622" y="66" width="13" height="13" fill="#444141" rx="2"><title>2026-05-26: 0 solved</title></rect><rect x="622" y="82" width="13" height="13" fill="#444141" rx="2"><title>2026-05-27: 0 solved</title></rect><rect x="622" y="98" width="13" height="13" fill="#444141" rx="2"><title>2026-05-28: 0 solved</title></rect><rect x="622" y="114" width="13" height="13" fill="#444141" rx="2"><title>2026-05-29: 0 solved</title></rect><rect x="622" y="130" width="13" height="13" fill="#444141" rx="2"><title>2026-05-30: 0 solved</title></rect><rect x="638" y="34" width="13" height="13" fill="#444141" rx="2"><title>2026-05-31: 0 solved</title></rect><rect x="638" y="50" width="13" height="13" fill="#444141" rx="2"><title>2026-06-01: 0 solved</title></rect><rect x="638" y="66" width="13" height="13" fill="#444141" rx="2"><title>2026-06-02: 0 solved</title></rect><rect x="638" y="82" width="13" height="13" fill="#444141" rx="2"><title>2026-06-03: 0 solved</title></rect><rect x="638" y="98" width="13" height="13" fill="#444141" rx="2"><title>2026-06-04: 0 solved</title></rect><rect x="638" y="114" width="13" height="13" fill="#444141" rx="2"><title>2026-06-05: 0 solved</title></rect><rect x="638" y="130" width="13" height="13" fill="#444141" rx="2"><title>2026-06-06: 0 solved</title></rect><rect x="654" y="34" width="13" height="13" fill="#444141" rx="2"><title>2026-06-07: 0 solved</title></rect><rect x="654" y="50" width="13" height="13" fill="#444141" rx="2"><title>2026-06-08: 0 solved</title></rect><rect x="654" y="66" width="13" height="13" fill="#444141" rx="2"><title>2026-06-09: 0 solved</title></rect><rect x="654" y="82" width="13" height="13" fill="#444141" rx="2"><title>2026-06-10: 0 solved</title></rect><rect x="654" y="98" width="13" height="13" fill="#444141" rx="2"><title>2026-06-11: 0 solved</title></rect><rect x="654" y="114" width="13" height="13" fill="#444141" rx="2"><title>2026-06-12: 0 solved</title></rect><rect x="654" y="130" width="13" height="13" fill="#444141" rx="2"><title>2026-06-13: 0 solved</title></rect><rect x="670" y="34" width="13" height="13" fill="#444141" rx="2"><title>2026-06-14: 0 solved</title></rect><rect x="670" y="50" width="13" height="13" fill="#444141" rx="2"><title>2026-06-15: 0 solved</title></rect><rect x="670" y="66" width="13" height="13" fill="#444141" rx="2"><title>2026-06-16: 0 solved</title></rect><rect x="670" y="82" width="13" height="13" fill="#444141" rx="2"><title>2026-06-17: 0 solved</title></rect><rect x="670" y="98" width="13" height="13" fill="#444141" rx="2"><title>2026-06-18: 0 solved</title></rect><rect x="670" y="114" width="13" height="13" fill="#444141" rx="2"><title>2026-06-19: 0 solved</title></rect><rect x="670" y="130" width="13" height="13" fill="#444141" rx="2"><title>2026-06-20: 0 solved</title></rect><rect x="686" y="34" width="13" height="13" fill="#444141" rx="2"><title>2026-06-21: 0 solved</title></rect><rect x="686" y="50" width="13" height="13" fill="#444141" rx="2"><title>2026-06-22: 0 solved</title></rect><rect x="686" y="66" width="13" height="13" fill="#444141" rx="2"><title>2026-06-23: 0 solved</title></rect><rect x="686" y="82" width="13" height="13" fill="#444141" rx="2"><title>2026-06-24: 0 solved</title></rect><rect x="686" y="98" width="13" height="13" fill="#444141" rx="2"><title>2026-06-25: 0 solved</title></rect><rect x="686" y="114" width="13" height="13" fill="#444141" rx="2"><title>2026-06-26: 0 solved</title></rect><rect x="686" y="130" width="13" height="13" fill="#444141" rx="2"><title>2026-06-27: 0 solved</title></rect><rect x="702" y="34" width="13" height="13" fill="#444141" rx="2"><title>2026-06-28: 0 solved</title></rect><rect x="702" y="50" width="13" height="13" fill="#444141" rx="2"><title>2026-06-29: 0 solved</title></rect><rect x="702" y="66" width="13" height="13" fill="#444141" rx="2"><title>2026-06-30: 0 solved</title></rect><rect x="702" y="82" width="13" height="13" fill="#444141" rx="2"><title>2026-07-01: 0 solved</title></rect><rect x="702" y="98" width="13" height="13" fill="#444141" rx="2"><title>2026-07-02: 0 solved</title></rect><rect x="702" y="114" width="13" height="13" fill="#444141" rx="2"><title>2026-07-03: 0 solved</title></rect><rect x="702" y="130" width="13" height="13" fill="#444141" rx="2"><title>2026-07-04: 0 solved</title></rect><rect x="718" y="34" width="13" height="13" fill="#444141" rx="2"><title>2026-07-05: 0 solved</title></rect><rect x="718" y="50" width="13" height="13" fill="#444141" rx="2"><title>2026-07-06: 0 solved</title></rect><rect x="718" y="66" width="13" height="13" fill="#444141" rx="2"><title>2026-07-07: 0 solved</title></rect><rect x="718" y="82" width="13" height="13" fill="#444141" rx="2"><title>2026-07-08: 0 solved</title></rect><rect x="718" y="98" width="13" height="13" fill="#444141" rx="2"><title>2026-07-09: 0 solved</title></rect><rect x="718" y="114" width="13" height="13" fill="#444141" rx="2"><title>2026-07-10: 0 solved</title></rect><rect x="718" y="130" width="13" height="13" fill="#444141" rx="2"><title>2026-07-11: 0 solved</title></rect><rect x="734" y="34" width="13" height="13" fill="#444141" rx="2"><title>2026-07-12: 0 solved</title></rect><rect x="734" y="50" width="13" height="13" fill="#444141" rx="2"><title>2026-07-13: 0 solved</title></rect><rect x="734" y="66" width="13" height="13" fill="#444141" rx="2"><title>2026-07-14: 0 solved</title></rect><rect x="734" y="82" width="13" height="13" fill="#444141" rx="2"><title>2026-07-15: 0 solved</title></rect><rect x="734" y="98" width="13" height="13" fill="#444141" rx="2"><title>2026-07-16: 0 solved</title></rect><rect x="734" y="114" width="13" height="13" fill="#444141" rx="2"><title>2026-07-17: 0 solved</title></rect><rect x="734" y="130" width="13" height="13" fill="#444141" rx="2"><title>2026-07-18: 0 solved</title></rect><rect x="750" y="34" width="13" height="13" fill="#444141" rx="2"><title>2026-07-19: 0 solved</title></rect><rect x="750" y="50" width="13" height="13" fill="#444141" rx="2"><title>2026-07-20: 0 solved</title></rect><rect x="750" y="66" width="13" height="13" fill="#444141" rx="2"><title>2026-07-21: 0 solved</title></rect><rect x="750" y="82" width="13" height="13" fill="#444141" rx="2"><title>2026-07-22: 0 solved</title></rect><rect x="750" y="98" width="13" height="13" fill="#444141" rx="2"><title>2026-07-23: 0 solved</title></rect><rect x="750" y="114" width="13" height="13" fill="#444141" rx="2"><title>2026-07-24: 0 solved</title></rect><rect x="750" y="130" width="13" height="13" fill="#444141" rx="2"><title>2026-07-25: 0 solved</title></rect><rect x="766" y="34" width="13" height="13" fill="#444141" rx="2"><title>2026-07-26: 0 solved</title></rect><rect x="766" y="50" width="13" height="13" fill="#444141" rx="2"><title>2026-07-27: 0 solved</title></rect><rect x="766" y="66" width="13" height="13" fill="#444141" rx="2"><title>2026-07-28: 0 solved</title></rect><rect x="766" y="82" width="13" height="13" fill="#444141" rx="2"><title>2026-07-29: 0 solved</title></rect><rect x="766" y="98" width="13" height="13" fill="#444141" rx="2"><title>2026-07-30: 0 solved</title></rect><rect x="766" y="114" width="13" height="13" fill="#444141" rx="2"><title>2026-07-31: 0 solved</title></rect><rect x="766" y="130" width="13" height="13" fill="#444141" rx="2"><title>2026-08-01: 0 solved</title></rect><rect x="782" y="34" width="13" height="13" fill="#444141" rx="2"><title>2026-08-02: 0 solved</title></rect><rect x="782" y="50" width="13" height="13" fill="#444141" rx="2"><title>2026-08-03: 0 solved</title></rect><rect x="782" y="66" width="13" height="13" fill="#444141" rx="2"><title>2026-08-04: 0 solved</title></rect><rect x="782" y="82" width="13" height="13" fill="#444141" rx="2"><title>2026-08-05: 0 solved</title></rect><rect x="782" y="98" width="13" height="13" fill="#444141" rx="2"><title>2026-08-06: 0 solved</title></rect><rect x="782" y="114" width="13" height="13" fill="#444141" rx="2"><title>2026-08-07: 0 solved</title></rect><rect x="782" y="130" width="13" height="13" fill="#444141" rx="2"><title>2026-08-08: 0 solved</title></rect><rect x="798" y="34" width="13" height="13" fill="#444141" rx="2"><title>2026-08-09: 0 solved</title></rect><rect x="798" y="50" width="13" height="13" fill="#444141" rx="2"><title>2026-08-10: 0 solved</title></rect><rect x="798" y="66" width="13" height="13" fill="#444141" rx="2"><title>2026-08-11: 0 solved</title></rect><rect x="798" y="82" width="13" height="13" fill="#444141" rx="2"><title>2026-08-12: 0 solved</title></rect><rect x="798" y="98" width="13" height="13" fill="#444141" rx="2"><title>2026-08-13: 0 solved</title></rect><rect x="798" y="114" width="13" height="13" fill="#444141" rx="2"><title>2026-08-14: 0 solved</title></rect><rect x="798" y="130" width="13" height="13" fill="#444141" rx="2"><title>2026-08-15: 0 solved</title></rect><rect x="814" y="34" width="13" height="13" fill="#444141" rx="2"><title>2026-08-16: 0 solved</title></rect><rect x="814" y="50" width="13" height="13" fill="#444141" rx="2"><title>2026-08-17: 0 solved</title></rect><rect x="814" y="66" width="13" height="13" fill="#444141" rx="2"><title>2026-08-18: 0 solved</title></rect><rect x="814" y="82" width="13" height="13" fill="#444141" rx="2"><title>2026-08-19: 0 solved</title></rect><rect x="814" y="98" width="13" height="13" fill="#444141" rx="2"><title>2026-08-20: 0 solved</title></rect><rect x="814" y="114" width="13" height="13" fill="#444141" rx="2"><title>2026-08-21: 0 solved</title></rect><rect x="814" y="130" width="13" height="13" fill="#444141" rx="2"><title>2026-08-22: 0 solved</title></rect><rect x="830" y="34" width="13" height="13" fill="#444141" rx="2"><title>2026-08-23: 0 solved</title></rect><rect x="830" y="50" width="13" height="13" fill="#444141" rx="2"><title>2026-08-24: 0 solved</title></rect><rect x="830" y="66" width="13" height="13" fill="#444141" rx="2"><title>2026-08-25: 0 solved</title></rect><rect x="830" y="82" width="13" height="13" fill="#444141" rx="2"><title>2026-08-26: 0 solved</title></rect><rect x="830" y="98" width="13" height="13" fill="#444141" rx="2"><title>2026-08-27: 0 solved</title></rect><rect x="830" y="114" width="13" height="13" fill="#444141" rx="2"><title>2026-08-28: 0 solved</title></rect><rect x="830" y="130" width="13" height="13" fill="#444141" rx="2"><title>2026-08-29: 0 solved</title></rect><rect x="846" y="34" width="13" height="13" fill="#444141" rx="2"><title>2026-08-30: 0 solved</title></rect><rect x="846" y="50" width="13" height="13" fill="#444141" rx="2"><title>2026-08-31: 0 solved</title></rect><rect x="846" y="66" width="13" height="13" fill="#444141" rx="2"><title>2026-09-01: 0 solved</title></rect><rect x="846" y="82" width="13" height="13" fill="#444141" rx="2"><title>2026-09-02: 0 solved</title></rect><rect x="846" y="98" width="13" height="13" fill="#444141" rx="2"><title>2026-09-03: 0 solved</title></rect><rect x="846" y="114" width="13" height="13" fill="#444141" rx="2"><title>2026-09-04: 0 solved</title></rect><rect x="846" y="130" width="13" height="13" fill="#444141" rx="2"><title>2026-09-05: 0 solved</title></rect><rect x="862" y="34" width="13" height="13" fill="#444141" rx="2"><title>2026-09-06: 0 solved</title></rect><rect x="862" y="50" width="13" height="13" fill="#444141" rx="2"><title>2026-09-07: 0 solved</title></rect><rect x="862" y="66" width="13" height="13" fill="#444141" rx="2"><title>2026-09-08: 0 solved</title></rect><rect x="862" y="82" width="13" height="13" fill="#444141" rx="2"><title>2026-09-09: 0 solved</title></rect><rect x="862" y="98" width="13" height="13" fill="#ff563c8c" rx="2"><title>2026-09-10: 1 solved</title></rect><rect x="862" y="114" width="13" height="13" fill="#ff563c" rx="2"><title>2026-09-11: 2 solved</title></rect><text x="0" y="164" font-family="system-ui,sans-serif" font-size="10" fill="#bab6b6">2 active days · 3 solved · busiest 2 in a day</text></svg>